<?xml version="1.0" encoding="UTF-8" standalone="no"?>
<!-- Created with Inkscape (http://www.inkscape.org/) -->

<svg
   xmlns:dc="http://purl.org/dc/elements/1.1/"
   xmlns:cc="http://creativecommons.org/ns#"
   xmlns:rdf="http://www.w3.org/1999/02/22-rdf-syntax-ns#"
   xmlns:svg="http://www.w3.org/2000/svg"
   xmlns="http://www.w3.org/2000/svg"
   xmlns:xlink="http://www.w3.org/1999/xlink"
   xmlns:sodipodi="http://sodipodi.sourceforge.net/DTD/sodipodi-0.dtd"
   xmlns:inkscape="http://www.inkscape.org/namespaces/inkscape"
   id="svg3247"
   version="1.1"
   inkscape:version="0.48.3.1 r9886"
   width="700"
   height="467"
   sodipodi:docname="Omni-logos-17.svg"
   inkscape:export-filename="/home/wrought/projects/omnicommons.org/images/Omni-logos-15.png"
   inkscape:export-xdpi="90"
   inkscape:export-ydpi="90">
  <metadata
     id="metadata3253">
    <rdf:RDF>
      <cc:Work
         rdf:about="">
        <dc:format>image/svg+xml</dc:format>
        <dc:type
           rdf:resource="http://purl.org/dc/dcmitype/StillImage" />
        <dc:title></dc:title>
      </cc:Work>
    </rdf:RDF>
  </metadata>
  <defs
     id="defs3251">
    <linearGradient
       inkscape:collect="always"
       id="linearGradient4642">
      <stop
         style="stop-color:#000000;stop-opacity:1;"
         offset="0"
         id="stop4644" />
      <stop
         style="stop-color:#000000;stop-opacity:0;"
         offset="1"
         id="stop4646" />
    </linearGradient>
    <radialGradient
       inkscape:collect="always"
       xlink:href="#linearGradient4642"
       id="radialGradient4648"
       cx="369.55545"
       cy="144.25452"
       fx="369.55545"
       fy="144.25452"
       r="126.37898"
       gradientTransform="matrix(0.38983541,0.85434163,-2.3225443,-0.34652744,560.52716,-44.203746)"
       gradientUnits="userSpaceOnUse" />
  </defs>
  <sodipodi:namedview
     pagecolor="#ffffff"
     bordercolor="#666666"
     borderopacity="1"
     objecttolerance="10"
     gridtolerance="10"
     guidetolerance="10"
     inkscape:pageopacity="0"
     inkscape:pageshadow="2"
     inkscape:window-width="1280"
     inkscape:window-height="747"
     id="namedview3249"
     showgrid="false"
     inkscape:zoom="0.50535332"
     inkscape:cx="398.87138"
     inkscape:cy="227.69804"
     inkscape:window-x="0"
     inkscape:window-y="29"
     inkscape:window-maximized="1"
     inkscape:current-layer="svg3247"
     showguides="true"
     inkscape:guide-bbox="true" />
  <path
     style="fill:#e6e7e9;fill-opacity:1;stroke:none"
     d="m -1.4999999e-6,1.25e-6 0,466.99999875 L 700,467 700,1.25e-6 l -700.0000015,0 z"
     id="rect3276"
     inkscape:connector-curvature="0" />
  <text
     xml:space="preserve"
     style="font-size:24.39125251999999833px;font-style:normal;font-variant:normal;font-weight:normal;font-stretch:normal;line-height:100%;letter-spacing:0px;word-spacing:0px;fill:#ffffff;fill-opacity:1;stroke:none;font-family:Dosis;-inkscape-font-specification:Dosis"
     x="349.24042"
     y="155.81644"
     id="text4046"
     sodipodi:linespacing="100%"><tspan
       sodipodi:role="line"
       x="349.24042"
       y="155.81644"
       style="font-size:76.22266387999999893px;font-style:normal;font-variant:normal;font-weight:normal;font-stretch:normal;text-align:center;line-height:100%;text-anchor:middle;font-family:Libre Baskerville;-inkscape-font-specification:Libre Baskerville;fill:#ffffff;fill-opacity:1"
       id="tspan4064" /></text>
  <text
     xml:space="preserve"
     style="font-size:24.39125251999999833px;font-style:normal;font-variant:normal;font-weight:normal;font-stretch:normal;line-height:121.00000380999999550%;letter-spacing:0px;word-spacing:0px;fill:#ffffff;fill-opacity:1;stroke:none;font-family:Dosis;-inkscape-font-specification:Dosis"
     x="349.07104"
     y="205.42081"
     id="text4071"
     sodipodi:linespacing="121%"><tspan
       sodipodi:role="line"
       x="349.07104"
       y="205.42081"
       style="font-size:48.78250503999999665px;font-style:normal;font-variant:normal;font-weight:normal;font-stretch:normal;text-align:center;text-anchor:middle;font-family:Cardo;-inkscape-font-specification:Cardo;fill:#ffffff;fill-opacity:1"
       dx="0 -0.91467202 1.0823618 0.14482306 -1.5092088 0 0 0 1.692143 -1.2652962 0.31251296 -1.1814513"
       id="tspan3084" /></text>
  <flowRoot
     xml:space="preserve"
     id="flowRoot3052"
     style="font-size:32px;font-style:normal;font-variant:normal;font-weight:normal;font-stretch:normal;line-height:125%;letter-spacing:0px;word-spacing:0px;fill:#ffffff;fill-opacity:1;stroke:none;font-family:Dosis;-inkscape-font-specification:Dosis"
     transform="matrix(0.76222666,0,0,0.76222666,285.86181,96.995474)"><flowRegion
       id="flowRegion3054"><rect
         id="rect3056"
         width="393.18433"
         height="173.50482"
         x="74.159325"
         y="12.249443"
         style="fill:#ffffff;fill-opacity:1" /></flowRegion><flowPara
       id="flowPara3060"
       style="font-family:Cardo;-inkscape-font-specification:Cardo;fill:#ffffff;fill-opacity:1" /></flowRoot>  <flowRoot
     xml:space="preserve"
     id="flowRoot3068"
     style="font-size:32px;font-style:normal;font-variant:normal;font-weight:normal;font-stretch:normal;line-height:125%;letter-spacing:0px;word-spacing:0px;fill:#ffffff;fill-opacity:1;stroke:none;font-family:Dosis;-inkscape-font-specification:Dosis"
     transform="matrix(0.76222666,0,0,0.76222666,83.220671,59.666843)"><flowRegion
       id="flowRegion3070"><rect
         id="rect3072"
         width="232.2726"
         height="85.35318"
         x="117.53553"
         y="-24.130602"
         style="fill:#ffffff;fill-opacity:1" /></flowRegion><flowPara
       id="flowPara3080"
       style="font-style:normal;font-variant:normal;font-weight:normal;font-stretch:normal;font-family:Cardo;-inkscape-font-specification:Cardo;fill:#ffffff;fill-opacity:1" /></flowRoot>  <text
     xml:space="preserve"
     style="font-size:32px;font-style:normal;font-variant:normal;font-weight:normal;font-stretch:normal;line-height:110.00000238%;letter-spacing:0px;word-spacing:0px;fill:#000000;fill-opacity:1;stroke:none;font-family:Dosis;-inkscape-font-specification:Dosis"
     x="351.18945"
     y="260.25073"
     id="text3926"
     sodipodi:linespacing="110%"><tspan
       sodipodi:role="line"
       id="tspan3928"
       x="351.18945"
       y="260.25073"
       style="font-size:56px;font-style:normal;font-variant:normal;font-weight:300;font-stretch:normal;text-align:center;line-height:110.00000238%;text-anchor:middle;font-family:Roboto;-inkscape-font-specification:Roboto Light">Optik</tspan><tspan
       sodipodi:role="line"
       x="351.18945"
       y="321.85074"
       style="font-size:56px;font-style:normal;font-variant:normal;font-weight:300;font-stretch:normal;text-align:center;line-height:110.00000238%;text-anchor:middle;font-family:Roboto;-inkscape-font-specification:Roboto Light"
       id="tspan3930">Allusions</tspan></text>
  <g
     id="g4999"
     transform="matrix(1.1111111,0,0,1.1111111,299.55556,109.46392)">
    <g
       id="g4951">
	<path
   id="path4953"
   d="M 45.4,62.3 C 40.2,62.3 34.9,60.8 29.6,57.7 23.2,54.1 19.1,49.5 18.9,49.3 l -2.5,-2.8 2.4,-2.8 c 0,0 3.8,-4.5 9.3,-8.6 6.1,-4.5 11.9,-6.8 17.3,-6.8 5.4,0 11.2,2.3 17.3,6.8 5.5,4.1 9.3,8.6 9.3,8.6 l 2.4,2.8 -2.5,2.8 c -0.2,0.2 -4.3,4.8 -10.7,8.4 -5.3,3.1 -10.6,4.6 -15.8,4.6 z m -26.9,-15.7 1.6,1.7 c 0.2,0.2 4.2,4.6 10.3,8.1 10.1,5.8 20,5.8 30.1,0 6.1,-3.5 10.1,-7.9 10.3,-8.1 l 1.6,-1.7 -1.5,-1.8 c 0,0 -3.6,-4.4 -9,-8.4 -5.8,-4.3 -11.3,-6.5 -16.4,-6.5 -5,0 -10.5,2.2 -16.4,6.5 -5.3,3.9 -9,8.3 -9,8.4 l -1.6,1.8 z"
   inkscape:connector-curvature="0" />

</g>
    <path
       id="path4955"
       d="m 54.4,45.6 4,-0.6 -4,-0.6 3.9,-1.2 -4.1,-0.1 3.7,-1.7 -4,0.5 3.4,-2.2 -3.9,1 3.1,-2.6 -3.8,1.5 2.7,-3 -3.5,2 2.3,-3.4 -3.2,2.5 1.8,-3.7 -2.9,3 1.3,-3.9 -2.4,3.3 0.7,-4 -2,3.6 0.2,-4.1 -1.4,3.8 -0.4,-4.1 -0.9,4 -0.9,-4 -0.4,4.1 -1.4,-3.8 0.2,4.1 -2,-3.6 0.7,4 -2.4,-3.3 1.3,3.9 -2.8,-3 1.8,3.7 -3.2,-2.5 2.3,3.4 -3.5,-2 2.7,3 -3.9,-1.6 3.1,2.6 -3.9,-1 3.4,2.2 -4,-0.5 3.7,1.7 -4.1,0.1 3.9,1.2 -4,0.6 4,0.6 -3.9,1.2 4.1,0.1 -3.7,1.7 4,-0.5 -3.4,2.2 3.9,-1 -3.1,2.8 3.8,-1.5 -2.7,3 3.5,-2 -2.3,3.4 3.2,-2.5 -1.7,3.6 2.8,-2.9 -1.3,3.9 2.4,-3.3 -0.7,4 2,-3.6 -0.2,4.1 1.4,-3.8 0.4,4.1 0.9,-4 0.9,4 0.4,-4.1 1.4,3.8 -0.2,-4.1 2,3.6 -0.7,-4 2.4,3.3 -1.3,-4 2.8,2.9 -1.8,-3.7 3.2,2.5 -2.3,-3.4 3.5,2 -2.7,-3 3.8,1.5 -3.1,-2.6 3.9,1 -3.4,-2.2 4,0.5 -3.7,-1.7 4.1,-0.1 -3.8,-1.1 z m -11.5,0.5 c -1.9,0 -3.5,-1.6 -3.5,-3.5 0,-0.5 0.1,-1 0.3,-1.4 l 3.2,1.4 c 0,0 -2.1,-2.8 -2,-2.9 0.6,-0.4 1.3,-0.6 2,-0.6 1.9,0 3.5,1.6 3.5,3.5 0,2 -1.6,3.5 -3.5,3.5 z m 7.5,3.3 -1.4,-0.6 c 0,0 0.9,1.2 0.9,1.2 -0.2,0.2 -0.5,0.3 -0.9,0.3 -0.8,0 -1.5,-0.7 -1.5,-1.5 0,-0.8 0.7,-1.5 1.5,-1.5 0.8,0 1.5,0.7 1.5,1.5 0.1,0.2 0,0.4 -0.1,0.6 z"
       inkscape:connector-curvature="0" />
    <g
       id="g4957">
	<g
   id="g4959">
		<path
   id="path4961"
   d="m 44.2,23.3 c -0.6,0 -1,-0.4 -1,-1 V 3.8 c 0,-0.6 0.4,-1 1,-1 0.6,0 1,0.4 1,1 v 18.5 c 0,0.6 -0.5,1 -1,1 z"
   inkscape:connector-curvature="0" />

	</g>

</g>
    <g
       id="g4963">
	<g
   id="g4965">
		<path
   id="path4967"
   d="m 60.4,29.4 c -0.3,0 -0.5,-0.1 -0.7,-0.3 -0.4,-0.4 -0.4,-1 0,-1.4 l 6.5,-6.5 c 0.4,-0.4 1,-0.4 1.4,0 0.4,0.4 0.4,1 0,1.4 l -6.5,6.5 c -0.1,0.2 -0.4,0.3 -0.7,0.3 z"
   inkscape:connector-curvature="0" />

	</g>

</g>
    <g
       id="g4969">
	<g
   id="g4971">
		<path
   id="path4973"
   d="m 28.4,30.6 c -0.3,0 -0.5,-0.1 -0.7,-0.3 L 20.4,23 c -0.4,-0.4 -0.4,-1 0,-1.4 0.4,-0.4 1,-0.4 1.4,0 l 7.2,7.2 c 0.4,0.4 0.4,1 0,1.4 -0.1,0.3 -0.4,0.4 -0.6,0.4 z"
   inkscape:connector-curvature="0" />

	</g>

</g>
    <g
       id="g4975">
	<g
   id="g4977">
		<path
   id="path4979"
   d="m 22.5,69.7 c -0.3,0 -0.5,-0.1 -0.7,-0.3 -0.4,-0.4 -0.4,-1 0,-1.4 l 7.1,-7.1 c 0.4,-0.4 1,-0.4 1.4,0 0.4,0.4 0.4,1 0,1.4 l -7.1,7.1 c -0.2,0.2 -0.4,0.3 -0.7,0.3 z"
   inkscape:connector-curvature="0" />

	</g>

</g>
    <g
       id="g4981">
	<g
   id="g4983">
		<path
   id="path4985"
   d="m 45.8,87.2 c -0.6,0 -1,-0.4 -1,-1 V 67.7 c 0,-0.6 0.4,-1 1,-1 0.6,0 1,0.4 1,1 v 18.5 c 0,0.5 -0.4,1 -1,1 z"
   inkscape:connector-curvature="0" />

	</g>

</g>
    <g
       id="g4987">
	<g
   id="g4989">
		<path
   id="path4991"
   d="M 69.5,69.3 C 69.2,69.3 69,69.2 68.8,69 l -6.9,-6.9 c -0.4,-0.4 -0.4,-1 0,-1.4 0.4,-0.4 1,-0.4 1.4,0 l 6.9,6.9 c 0.4,0.4 0.4,1 0,1.4 -0.2,0.2 -0.5,0.3 -0.7,0.3 z"
   inkscape:connector-curvature="0" />

	</g>

</g>
  </g>
</svg>
